<svg xmlns="http://www.w3.org/2000/svg" xmlns:xlink="http://www.w3.org/1999/xlink" viewBox="0 0 54.83 54.55"><defs><style>.cls-1{fill:url(#Dégradé_sans_nom_40);}.cls-2{fill:url(#Dégradé_sans_nom_40-2);}.cls-3{fill:url(#Dégradé_sans_nom_40-3);}.cls-4{fill:#7dd3ff;}.cls-5{fill:#fff;}</style><radialGradient id="Dégradé_sans_nom_40" cx="2964.17" cy="-201.51" r="41.9" gradientTransform="translate(1800.95 2424.39) rotate(-122.5)" gradientUnits="userSpaceOnUse"><stop offset="0" stop-color="#7dd3ff"/><stop offset="0.65" stop-color="#36f"/><stop offset="1" stop-color="#1850ac"/></radialGradient><radialGradient id="Dégradé_sans_nom_40-2" cx="1767.25" cy="2397.4" r="41.89" gradientTransform="translate(2994.18 -243.77) rotate(121.4)" xlink:href="#Dégradé_sans_nom_40"/><radialGradient id="Dégradé_sans_nom_40-3" cx="17.04" cy="34" r="41.86" gradientTransform="matrix(1, 0, 0, 1, 0, 0)" xlink:href="#Dégradé_sans_nom_40"/></defs><g id="Calque_2" data-name="Calque 2"><g id="graphic_chart"><path class="cls-1" d="M13,8a23.31,23.31,0,0,1,21.8,6.69,20.23,20.23,0,0,1,5.45,9.77,15.56,15.56,0,0,1,0,6.34c-.14.59-.69,1.65.12,2s1.73-.94,2.18-1.37A18.18,18.18,0,0,0,36.11,1.5,26.93,26.93,0,0,0,27.28,0a27.82,27.82,0,0,0-22,11A22.34,22.34,0,0,1,13,8Z"/><path class="cls-2" d="M9.53,48.63a27.35,27.35,0,0,0,12.54,5.92A22.58,22.58,0,0,1,16,49a23.31,23.31,0,0,1-3.76-22,20.51,20.51,0,0,1,6.2-9.43,15.68,15.68,0,0,1,5.16-2.79,12.93,12.93,0,0,1,1.26-.33A3,3,0,0,0,26,14.21c.76-.57,0-1.2-.53-1.45C18.51,9.57,10,11.56,4.8,17A18.45,18.45,0,0,0,.08,31.5,27.69,27.69,0,0,0,9.53,48.63Z"/><path class="cls-3" d="M54.4,22.6a26.31,26.31,0,0,0-1.34-4.77,23.75,23.75,0,0,1-11,19.85C35.11,41.92,25,43,18.45,37.4a14.68,14.68,0,0,1-1.07-1c-.27-.29-.52-.73-.93-.81-1.07-.19-.83,1.13-.74,1.73a17,17,0,0,0,1.88,5.54A18.2,18.2,0,0,0,45.1,48.55,27.87,27.87,0,0,0,54.4,22.6Z"/><path class="cls-4" d="M37.07,25.64a10,10,0,1,0-4.66,10.44A10,10,0,0,0,37.07,25.64Zm-6.63,7.29a6.24,6.24,0,1,1,3-6.51A6.28,6.28,0,0,1,30.44,32.93Z"/><path class="cls-5" d="M27.29,21.29a6.24,6.24,0,1,0,6.15,5.13A6.3,6.3,0,0,0,27.29,21.29Z"/></g></g></svg>