<svg xmlns="http://www.w3.org/2000/svg" xmlns:xlink="http://www.w3.org/1999/xlink" viewBox="0 0 31.85 31.84"><defs><style>.cls-1{fill:#b1b1b1;}.cls-2{fill:#fff;}.cls-3{fill:url(#Dégradé_sans_nom_18);}.cls-4{fill:url(#Dégradé_sans_nom_18-2);}.cls-5{fill:url(#Dégradé_sans_nom_18-3);}</style><radialGradient id="Dégradé_sans_nom_18" cx="2225.37" cy="-628.45" r="24.2" gradientTransform="translate(1747.92 1558.19) rotate(-122.5)" gradientUnits="userSpaceOnUse"><stop offset="0" stop-color="#b1b1b1"/><stop offset="0.5" stop-color="#868686"/><stop offset="1" stop-color="#1d1d1b"/></radialGradient><radialGradient id="Dégradé_sans_nom_18-2" cx="1723.23" cy="1548.38" r="24.2" gradientTransform="translate(2235.2 -655) rotate(121.4)" xlink:href="#Dégradé_sans_nom_18"/><radialGradient id="Dégradé_sans_nom_18-3" cx="9.88" cy="19.78" r="24.2" gradientTransform="matrix(1, 0, 0, 1, 0, 0)" xlink:href="#Dégradé_sans_nom_18"/></defs><g id="Calque_2" data-name="Calque 2"><g id="graphic_chart"><path class="cls-1" d="M15.82,10.28A5.75,5.75,0,1,0,21.57,16,5.75,5.75,0,0,0,15.82,10.28Zm0,9.36A3.61,3.61,0,1,1,19.42,16,3.61,3.61,0,0,1,15.82,19.64Z"/><path class="cls-2" d="M15.82,12.42A3.61,3.61,0,1,0,19.42,16,3.61,3.61,0,0,0,15.82,12.42Z"/><path class="cls-3" d="M22.91,12.89a13.92,13.92,0,0,0-6.47-7.07A13.38,13.38,0,0,0,7.53,4.73,13,13,0,0,0,2.79,6.68,16.07,16.07,0,0,1,17.5.1,11.66,11.66,0,0,1,25.17,4a10.57,10.57,0,0,1,2.42,8.09,10.45,10.45,0,0,1-3.88,7,.42.42,0,0,1-.63-.48A9.1,9.1,0,0,0,22.91,12.89Z"/><path class="cls-4" d="M9.88,11A13.84,13.84,0,0,0,6.37,20a13.38,13.38,0,0,0,2.94,8.48,13.11,13.11,0,0,0,3.84,3.4A16,16,0,0,1,.77,21.52a11.62,11.62,0,0,1,.1-8.58A10.52,10.52,0,0,1,15,7.63a.42.42,0,0,1-.16.77A9.08,9.08,0,0,0,9.88,11Z"/><path class="cls-5" d="M14.65,23.7A13.84,13.84,0,0,0,24.09,22a13.37,13.37,0,0,0,5.71-6.92,13.18,13.18,0,0,0,.9-5A16.06,16.06,0,0,1,28.34,26,11.62,11.62,0,0,1,21,30.4,10.53,10.53,0,0,1,9.06,21.09a.42.42,0,0,1,.74-.27A9.1,9.1,0,0,0,14.65,23.7Z"/></g></g></svg>